/* XPM */
static char * icon_openbricks_64_xpm[] = {
"64 64 665 2",
"  	c None",
". 	c #FD7823",
"+ 	c #FC7B2A",
"@ 	c #FE7B25",
"# 	c #FD7A21",
"$ 	c #FD791F",
"% 	c #FD7820",
"& 	c #FC7C2E",
"* 	c #FD7D29",
"= 	c #FE7C25",
"- 	c #FE7C24",
"; 	c #FE7B22",
"> 	c #FE7920",
", 	c #FC781E",
"' 	c #FD771D",
") 	c #FC771F",
"! 	c #FD7B30",
"~ 	c #FD802D",
"{ 	c #FE7F2A",
"] 	c #FE7D28",
"^ 	c #FE7C26",
"/ 	c #FE7B23",
"( 	c #FE7A21",
"_ 	c #FD781F",
": 	c #FD771E",
"< 	c #FD771C",
"[ 	c #FD761B",
"} 	c #FC7721",
"| 	c #FD7C33",
"1 	c #FE8232",
"2 	c #FE812F",
"3 	c #FE802C",
"4 	c #FE7F2B",
"5 	c #FE7E29",
"6 	c #FE7D27",
"7 	c #FE7D26",
"8 	c #FE7B24",
"9 	c #FE7A22",
"0 	c #FE7921",
"a 	c #FC791F",
"b 	c #FD781D",
"c 	c #FD7519",
"d 	c #FC761C",
"e 	c #FD9A5F",
"f 	c #FE8433",
"g 	c #FE8330",
"h 	c #FE822F",
"i 	c #FE812D",
"j 	c #FE802B",
"k 	c #FE7E28",
"l 	c #FD7A22",
"m 	c #FC771C",
"n 	c #FD893B",
"o 	c #FEBA8F",
"p 	c #FFDAC4",
"q 	c #FE8737",
"r 	c #FE8535",
"s 	c #FE8331",
"t 	c #FE822E",
"u 	c #FE812C",
"v 	c #FD812F",
"w 	c #FDAE7A",
"x 	c #FFD8C1",
"y 	c #FFDBC4",
"z 	c #FFDAC2",
"A 	c #FE883B",
"B 	c #FE8839",
"C 	c #FE8635",
"D 	c #FE8534",
"E 	c #FE8432",
"F 	c #FD7F29",
"G 	c #FEA164",
"H 	c #FED2B8",
"I 	c #FFDCC5",
"J 	c #FEDBC3",
"K 	c #FFDAC3",
"L 	c #FE8C3F",
"M 	c #FD8A3D",
"N 	c #FE893B",
"O 	c #FE893A",
"P 	c #FE8838",
"Q 	c #FE8636",
"R 	c #FE8431",
"S 	c #FE812E",
"T 	c #FE9753",
"U 	c #FECAA9",
"V 	c #FFDCC6",
"W 	c #FEDCC6",
"X 	c #FFDBC5",
"Y 	c #FFDBC3",
"Z 	c #FE8D42",
"` 	c #FE8C40",
" .	c #FE8B3E",
"..	c #FE8A3C",
"+.	c #FE8738",
"@.	c #FD802B",
"#.	c #FD8E43",
"$.	c #FEBC91",
"%.	c #FFDDC8",
"&.	c #FFDBC6",
"*.	c #FD8F46",
"=.	c #FE8F44",
"-.	c #FE8E42",
";.	c #FE8D40",
">.	c #FE8A3D",
",.	c #FEAE79",
"'.	c #FFD8BF",
").	c #FEDFC9",
"!.	c #FFDDC7",
"~.	c #FE924A",
"{.	c #FD9148",
"].	c #FE9046",
"^.	c #FE9045",
"/.	c #FE8E43",
"(.	c #FE8D41",
"_.	c #FE8B3D",
":.	c #FE8A3B",
"<.	c #FD8737",
"[.	c #FEA165",
"}.	c #FFD2B6",
"|.	c #FFE0CA",
"1.	c #FFDEC9",
"2.	c #FFDEC7",
"3.	c #FE954E",
"4.	c #FE944D",
"5.	c #FE934B",
"6.	c #FE9149",
"7.	c #FE9047",
"8.	c #FE8C41",
"9.	c #FE8B3F",
"0.	c #FD8738",
"a.	c #FD9855",
"b.	c #FFCBA9",
"c.	c #FEDFCA",
"d.	c #FFDFC9",
"e.	c #FE9650",
"f.	c #FE944E",
"g.	c #FE934C",
"h.	c #FE9148",
"i.	c #FE9147",
"j.	c #FE8F45",
"k.	c #FE8C3E",
"l.	c #FE883A",
"m.	c #FD934B",
"n.	c #FEC096",
"o.	c #FFDDC6",
"p.	c #FEE0CB",
"q.	c #FFDFCB",
"r.	c #FE9955",
"s.	c #FD9853",
"t.	c #FE9751",
"u.	c #FE9550",
"v.	c #FE9249",
"w.	c #FEB382",
"x.	c #FFD9C0",
"y.	c #FEE1CE",
"z.	c #FFE0CC",
"A.	c #FFE0CB",
"B.	c #FEDCC4",
"C.	c #FE9B59",
"D.	c #FD9B57",
"E.	c #FE9956",
"F.	c #FE9854",
"G.	c #FE9752",
"H.	c #FE964F",
"I.	c #FE954D",
"J.	c #FEA76E",
"K.	c #FFD3B6",
"L.	c #FEE2D0",
"M.	c #FFE1CD",
"N.	c #FFE1CC",
"O.	c #FEDBC6",
"P.	c #FEBB8E",
"Q.	c #FE9F5F",
"R.	c #FD9C5A",
"S.	c #FE9B58",
"T.	c #FE9A57",
"U.	c #FE9853",
"V.	c #FD9147",
"W.	c #FE9E5F",
"X.	c #FFCAA8",
"Y.	c #FFE2CE",
"Z.	c #FFE2CF",
"`.	c #FFE2CD",
" +	c #FFE0CD",
".+	c #FEDDC7",
"++	c #FED3B5",
"@+	c #FD7C25",
"#+	c #FC6C0A",
"$+	c #FD7112",
"%+	c #FD7E2E",
"&+	c #FFB17D",
"*+	c #FEB27F",
"=+	c #FD9D5B",
"-+	c #FE9A58",
";+	c #FE954F",
">+	c #FD9954",
",+	c #FEC099",
"'+	c #FEE2CF",
")+	c #FFE1CF",
"!+	c #FD8F43",
"~+	c #FD7011",
"{+	c #FD7418",
"]+	c #FD7D25",
"^+	c #FD8534",
"/+	c #FE8D4A",
"(+	c #FFB17E",
"_+	c #FFB583",
":+	c #FEB789",
"<+	c #FEB584",
"[+	c #FEA46A",
"}+	c #FD9A57",
"|+	c #FD9751",
"1+	c #FEB788",
"2+	c #FFE4D1",
"3+	c #FFE2D0",
"4+	c #FFE3D0",
"5+	c #FFE4D2",
"6+	c #FDA970",
"7+	c #FD7B24",
"8+	c #FD822F",
"9+	c #FE8533",
"0+	c #FE8637",
"a+	c #FE8F46",
"b+	c #FE9355",
"c+	c #FFB989",
"d+	c #FFBC8F",
"e+	c #FFBE94",
"f+	c #FEB485",
"g+	c #FDA163",
"h+	c #FD9854",
"i+	c #FD9753",
"j+	c #FEAD77",
"k+	c #FFD4B8",
"l+	c #FFE4D3",
"m+	c #FEC39D",
"n+	c #FD822E",
"o+	c #FE8332",
"p+	c #FE9553",
"q+	c #FFB889",
"r+	c #FFC095",
"s+	c #FEC39B",
"t+	c #FFC49C",
"u+	c #FEB180",
"v+	c #FECBA9",
"w+	c #FFE5D3",
"x+	c #FECDAC",
"y+	c #FFC29A",
"z+	c #FD9C5C",
"A+	c #FD7F2A",
"B+	c #FE8230",
"C+	c #FE934A",
"D+	c #FE9B5E",
"E+	c #FFC39B",
"F+	c #FFC7A1",
"G+	c #FFCBA8",
"H+	c #FFE1CE",
"I+	c #FFE6D5",
"J+	c #FFE4D4",
"K+	c #FFE5D2",
"L+	c #FFCCAA",
"M+	c #FFBD91",
"N+	c #FFC8A4",
"O+	c #FECCAB",
"P+	c #FFBF96",
"Q+	c #FE944F",
"R+	c #FD822D",
"S+	c #FD812E",
"T+	c #FE8939",
"U+	c #FD9E5E",
"V+	c #FEA26A",
"W+	c #FFCAA7",
"X+	c #FFE6D4",
"Y+	c #FFD0B1",
"Z+	c #FFBB8E",
"`+	c #FFC198",
" @	c #FFCCA9",
".@	c #FECCAA",
"+@	c #FEB98B",
"@@	c #FE9C5B",
"#@	c #FE9F5E",
"$@	c #FFA162",
"%@	c #FFA468",
"&@	c #FFA774",
"*@	c #FEE1CD",
"=@	c #FFB98A",
"-@	c #FFBF94",
";@	c #FFCBAA",
">@	c #FFC8A5",
",@	c #FEAF7D",
"'@	c #FE9652",
")@	c #FD9E5C",
"!@	c #FEA061",
"~@	c #FFA365",
"{@	c #FFA76C",
"]@	c #FFA973",
"^@	c #FFBB8D",
"/@	c #FFBD92",
"(@	c #FFC197",
"_@	c #FECDAB",
":@	c #FFC59F",
"<@	c #FEA870",
"[@	c #FD9149",
"}@	c #FE944C",
"|@	c #FE9D5B",
"1@	c #FFA263",
"2@	c #FFA366",
"3@	c #FFA66B",
"4@	c #FFA86F",
"5@	c #FFAB72",
"6@	c #FFB07E",
"7@	c #FFBF95",
"8@	c #FFBD90",
"9@	c #FFC39A",
"0@	c #FFC9A6",
"a@	c #FFC098",
"b@	c #FEA266",
"c@	c #FD9650",
"d@	c #FE9C5A",
"e@	c #FFA061",
"f@	c #FFA569",
"g@	c #FFA76D",
"h@	c #FFAA70",
"i@	c #FFAC74",
"j@	c #FFAE78",
"k@	c #FFB07C",
"l@	c #FFB381",
"m@	c #FFB385",
"n@	c #FFB486",
"o@	c #FEBC8F",
"p@	c #FEE4D2",
"q@	c #FFC49E",
"r@	c #FEC59D",
"s@	c #FFBB8F",
"t@	c #FDA162",
"u@	c #FD9B58",
"v@	c #FD9D5C",
"w@	c #FEA264",
"x@	c #FFA96F",
"y@	c #FFAB73",
"z@	c #FFAD77",
"A@	c #FFAF7A",
"B@	c #FFB27E",
"C@	c #FFB380",
"D@	c #FFD2B9",
"E@	c #FD7B2B",
"F@	c #FFBA8E",
"G@	c #FEC095",
"H@	c #FFD8BE",
"I@	c #FD975A",
"J@	c #FE9E60",
"K@	c #FECBAA",
"L@	c #FEC9A7",
"M@	c #FFA062",
"N@	c #FFA86D",
"O@	c #FFAA71",
"P@	c #FFAC75",
"Q@	c #FFAF79",
"R@	c #FFB88A",
"S@	c #FFCFB2",
"T@	c #FFDAC5",
"U@	c #FEDAC3",
"V@	c #FC6B0F",
"W@	c #FC6500",
"X@	c #FD6A08",
"Y@	c #FD9048",
"Z@	c #FFC7A2",
"`@	c #FEC7A1",
" #	c #FEE5D5",
".#	c #FE9855",
"+#	c #FD863B",
"@#	c #FD7D2A",
"##	c #FA761E",
"$#	c #FB761D",
"%#	c #FEAA72",
"&#	c #FECFB1",
"*#	c #FFA56A",
"=#	c #FFA66C",
"-#	c #FFA970",
";#	c #FFAE77",
">#	c #FFC8A7",
",#	c #FFA66D",
"'#	c #FE8436",
")#	c #FD6C0B",
"!#	c #FC6907",
"~#	c #FEA970",
"{#	c #FFCEAD",
"]#	c #FEE3D0",
"^#	c #FFE7D6",
"/#	c #FEB07D",
"(#	c #FD7B23",
"_#	c #FD7E28",
":#	c #FD883A",
"<#	c #FE8C46",
"[#	c #FB7A25",
"}#	c #F9741A",
"|#	c #FA7319",
"1#	c #FA7419",
"2#	c #FFCEAE",
"3#	c #FFCCAB",
"4#	c #FFC39C",
"5#	c #FFAA72",
"6#	c #FFD6BE",
"7#	c #FFDCC7",
"8#	c #FFAE7A",
"9#	c #FFB07D",
"0#	c #FD7F2B",
"a#	c #FC7012",
"b#	c #FC7010",
"c#	c #FD8434",
"d#	c #FEBC8E",
"e#	c #FE8D45",
"f#	c #FD8331",
"g#	c #FEC59E",
"h#	c #FFCDAC",
"i#	c #FFD1B6",
"j#	c #FFDDC9",
"k#	c #FFDCC4",
"l#	c #FFB280",
"m#	c #FE9D5F",
"n#	c #FD7B26",
"o#	c #FC761A",
"p#	c #FC771E",
"q#	c #FE7F29",
"r#	c #FE802D",
"s#	c #FE9551",
"t#	c #FE8C43",
"u#	c #FD7C24",
"v#	c #FEA66B",
"w#	c #FFD2B4",
"x#	c #FFB382",
"y#	c #FFB584",
"z#	c #FD9756",
"A#	c #FD7D27",
"B#	c #FE7E27",
"C#	c #FE8736",
"D#	c #FE9852",
"E#	c #FE9A5B",
"F#	c #FD9047",
"G#	c #FFBE95",
"H#	c #FEC8A5",
"I#	c #FEC59F",
"J#	c #FFD2B3",
"K#	c #FEB686",
"L#	c #FFB788",
"M#	c #FE9450",
"N#	c #FD802C",
"O#	c #FEB484",
"P#	c #FFCDAD",
"Q#	c #FDBD91",
"R#	c #FDB888",
"S#	c #FEB889",
"T#	c #FFC7A3",
"U#	c #FFB686",
"V#	c #FFBA8D",
"W#	c #FEAC79",
"X#	c #FE9A56",
"Y#	c #FFA46A",
"Z#	c #FE9E61",
"`#	c #FED5B9",
" $	c #FED0B1",
".$	c #FEC69F",
"+$	c #FDBF94",
"@$	c #FEBA8D",
"#$	c #FDB787",
"$$	c #FFB98C",
"%$	c #FFBA90",
"&$	c #FFA770",
"*$	c #FD8B3E",
"=$	c #FE9651",
"-$	c #FE9954",
";$	c #FE9D5D",
">$	c #FE9F60",
",$	c #FFA467",
"'$	c #FFA873",
")$	c #FFD2B5",
"!$	c #FFD1B1",
"~$	c #FEC299",
"{$	c #FDBE92",
"]$	c #FFBC90",
"^$	c #FFBD93",
"/$	c #FFBC91",
"($	c #FFA66A",
"_$	c #FFA86E",
":$	c #FFAD75",
"<$	c #FFB282",
"[$	c #FFD0B0",
"}$	c #FEC49D",
"|$	c #FEDBC4",
"1$	c #FFBF97",
"2$	c #FFBA8F",
"3$	c #FDA266",
"4$	c #FD954E",
"5$	c #FE9C59",
"6$	c #FD9D5D",
"7$	c #FEA060",
"8$	c #FEA265",
"9$	c #FFA568",
"0$	c #FFAB74",
"a$	c #FFB07B",
"b$	c #FFB98E",
"c$	c #FFCFAF",
"d$	c #FE8A3E",
"e$	c #FFC9A5",
"f$	c #FECEAE",
"g$	c #FD9354",
"h$	c #FFB07F",
"i$	c #FEC198",
"j$	c #FFC19A",
"k$	c #FFA163",
"l$	c #FFAD76",
"m$	c #FFB27F",
"n$	c #FFD5BC",
"o$	c #FC8636",
"p$	c #FC8737",
"q$	c #FD9F60",
"r$	c #FEDDC8",
"s$	c #FFD5B9",
"t$	c #FEA366",
"u$	c #FD9046",
"v$	c #FD9249",
"w$	c #FDA368",
"x$	c #FECBAD",
"y$	c #FEA166",
"z$	c #FFB17F",
"A$	c #FEB483",
"B$	c #FFC39D",
"C$	c #FEA365",
"D$	c #FFA971",
"E$	c #FFB787",
"F$	c #FFE0CF",
"G$	c #FFE3D2",
"H$	c #FED1B2",
"I$	c #FD944D",
"J$	c #FD8D40",
"K$	c #FC8C3F",
"L$	c #FD8F44",
"M$	c #FEB280",
"N$	c #FFD3B7",
"O$	c #FEB585",
"P$	c #FD924A",
"Q$	c #FD944C",
"R$	c #FE9E5E",
"S$	c #FEC098",
"T$	c #FFD9C2",
"U$	c #FD944B",
"V$	c #FEA770",
"W$	c #FFB484",
"X$	c #FFC49D",
"Y$	c #FFC6A1",
"Z$	c #FFC39E",
"`$	c #FFC49F",
" %	c #FFDECB",
".%	c #FFE4D0",
"+%	c #FD934C",
"@%	c #FEB688",
"#%	c #FFD7C0",
"$%	c #FFAF7C",
"%%	c #FD954F",
"&%	c #FEB88A",
"*%	c #FFC5A0",
"=%	c #FFAC76",
"-%	c #FFE5D4",
";%	c #FEA162",
">%	c #FD9955",
",%	c #FD9957",
"'%	c #FDAD78",
")%	c #FEB583",
"!%	c #FEB281",
"~%	c #FE9D5E",
"{%	c #FE9754",
"]%	c #FFB789",
"^%	c #FEBA8C",
"/%	c #FFC9A7",
"(%	c #FFD2B8",
"_%	c #FEA66C",
":%	c #FECCAE",
"<%	c #FFBC92",
"[%	c #FEB17E",
"}%	c #FD9958",
"|%	c #FEA063",
"1%	c #FFD1B3",
"2%	c #FFE6D6",
"3%	c #FEA468",
"4%	c #FEC29A",
"5%	c #FEC39C",
"6%	c #FFC199",
"7%	c #FEAC76",
"8%	c #FEDEC9",
"9%	c #FFCBAC",
"0%	c #FFD0B3",
"a%	c #FFD6BD",
"b%	c #FFDEC8",
"c%	c #FFA161",
"d%	c #FFDFCA",
"e%	c #FEE5D4",
"f%	c #FED9C0",
"g%	c #FEC19A",
"h%	c #FFCBAB",
"i%	c #FDE3D1",
"j%	c #FBE0CD",
"k%	c #FADECB",
"l%	c #F9DCC8",
"m%	c #F9DBC7",
"n%	c #F9DAC5",
"o%	c #FBD0B5",
"p%	c #FFC29B",
"q%	c #FFDECA",
"r%	c #FCE2CF",
"s%	c #F8DDCB",
"t%	c #F7DBC8",
"u%	c #F5D9C6",
"v%	c #F3D7C3",
"w%	c #F3D4C0",
"x%	c #F1D3BE",
"y%	c #F1D0B9",
"z%	c #F8C8AA",
"A%	c #FEC6A2",
"B%	c #FFCFB0",
"C%	c #FFA56B",
"D%	c #FFDFCC",
"E%	c #FBE0CE",
"F%	c #F5DBC9",
"G%	c #F4D9C6",
"H%	c #F3D6C3",
"I%	c #F1D5C1",
"J%	c #F0D2BE",
"K%	c #EED0BC",
"L%	c #E6C4AD",
"M%	c #F3A16A",
"N%	c #FFC097",
"O%	c #FFB888",
"P%	c #FFB687",
"Q%	c #FFD3B8",
"R%	c #FEDCC5",
"S%	c #FADFCD",
"T%	c #F3D9C7",
"U%	c #F1D6C4",
"V%	c #F0D4C1",
"W%	c #EFD2BF",
"X%	c #E9CDBA",
"Y%	c #FFB98B",
"Z%	c #FFAE79",
"`%	c #FFC49B",
" &	c #F8DECC",
".&	c #F0D6C4",
"+&	c #EED5C2",
"@&	c #EDD1BF",
"#&	c #FEC29B",
"$&	c #FFD2B2",
"%&	c #F6DCCA",
"&&	c #EFD5C3",
"*&	c #FFB17C",
"=&	c #FFE3D1",
"-&	c #FEE5D3",
";&	c #F0D7C5",
">&	c #FFC8A3",
",&	c #FFD7BC",
"'&	c #FFCAA6",
")&	c #FFCFB1",
"!&	c #FEE0CA",
"~&	c #FFD1B4",
"{&	c #FFC29C",
"]&	c #FEC7A2",
"^&	c #FEC9A5",
"                                                                  . +                                                           ",
"                                                                @ # $ % &                                                       ",
"                                                            * = - ; > , ' ) !                                                   ",
"                                                        ~ { ] ^ - / ( _ : < [ } |                                               ",
"                                                    1 2 3 4 5 6 7 8 9 0 a b [ c d e                                             ",
"                                                  f g h i j { k 6 = / l > , m n o p                                             ",
"                                              q r f s g t u { 5 k 7 - 9 ( v w x y z                                             ",
"                                          A B q C D E s h i j { 5 6 = F G H I J K z                                             ",
"                                      L M N O P Q r f R g S 3 4 5 6 T U V W X Y Y z                                             ",
"                                    Z `  ...N B +.Q D f s h i @.#.$.X %.I &.I Y Y z                                             ",
"                                *.=.-.;.L >...O P q r D E h N ,.'.).!.!.I &.I Y Y z                                             ",
"                            ~.{.].^./.(.`  ._.:.B q Q D <.[.}.|.1.2.!.!.I &.I Y Y z                                             ",
"                        3.4.5.6.7.].=.-.8.9. ...O +.0.a.b.1.c.d.1.2.!.!.I &.I Y Y z                                             ",
"                      e.3.f.g.~.h.i.j./.Z ` k._.l.m.n.o.p.q.d.d.1.2.!.!.I &.I Y Y z                                             ",
"                  r.s.t.u.3.4.5.v.h.].j./.(.9.*.w.x.y.z.A.q.d.d.1.2.!.!.I &.I B.I                                               ",
"              C.D.E.F.G.t.H.I.g.~.v.i.^./.*.J.K.L.M.N.A.A.q.d.d.1.2.!.!.I O.1.P.                                                ",
"            Q.R.S.T.r.U.G.e.3.4.5.~.h.V.W.X.Y.Z.`. +N.A.A.q.d.d.1.2.!..+o.++@+#+$+%+                                            ",
"          &+*+J.=+-+E.F.U.t.;+f.g.~.>+,+z.'+Z.)+`. +N.A.A.q.d.d.1.2..+V !+~+{+> ]+j ^+/+                                        ",
"          (+_+:+<+[+}+r.U.G.e.3.|+1+J 2+3+4+Z.Z.`. +N.A.A.q.d.d.%.5+6+7+( 6 j 8+9+0+N L a+b+                                    ",
"          (+_+c+d+e+f+g+h+G.i+j+k+l+5+2+3+4+Z.Z.`. +N.A.A.q.1.q.m+n+c 9 7 { i o+Q B _.(.j.v.p+                                  ",
"          (+_+q+d+r+s+t+u+J.v+l+w+l+2+2+3+4+Z.Z.`. +N.A.q.z.z x+y+z+A+- k 3 B+D q :.` /.7.C+3.T D+                              ",
"          (+_+q+d+r+E+F+G+H+I+J+K+l+2+2+3+4+Z.Z.`. +N.z.d.L+M+N+L+O+P+Q+R+S+E Q T+ .(.j.v.4.t.F.S.U+V+                          ",
"          (+_+q+d+r+E+F+W+Y.X+J+K+l+2+2+3+4+Z.Z.`. +M.Y+Z+M+`+G+L+ @.@G++@7.C P ..;./.h.5.H.U.T.@@#@$@%@&@                      ",
"          (+_+q+d+r+E+F+W+Y.X+J+K+l+2+2+3+4+Z.Z.*@M.n.=@d+-@t+L+;@L+L+L+.@>@,@*. .Z ].~.I.'@r.C.)@!@~@%@{@]@                    ",
"          (+_+q+d+r+E+F+W+Y.X+J+K+l+2+2+3+4+Z.Y.    M+^@/@(@F+L+L+L+L+L+b.L+_@:@<@[@i.}@e.F.T.|@Q.1@2@3@4@5@j+6@                ",
"          (+_+q+d+r+E+F+W+Y.X+J+K+l+2+2+3+4+Z.      7@8@7@9@0@b.L+L+L+L+L+L+L+L+O+a@b@c@t.E.d@U+e@~@f@g@h@i@j@k@l@m@            ",
"            n@=@o@r+E+F+W+Y.X+J+K+l+p@2+L.            q@y+r@b.L+L+L+L+L+L+L+L+L+;@L+.@s@t@u@v@Q.w@%@3@x@y@z@A@B@C@M+D@          ",
"              E@F@G@E+F+W+Y.X+J+K+l+H@I@                J@X.L+L+L+L+L+L+L+L+L+L+L+b.L+K@L@:+g+M@2@f@N@O@P@Q@&+R@S@T@U@          ",
"            V@W@X@Y@Z@`@W+Y.X+ #5+.#5 h +#          @###$#B+%#&#L+L+L+L+L+L+L+L+L+L+L+L+L+L+Z@w.*#=#-#y@;#C@>#p X Y z           ",
"          A@,#'#)#!#c ~#{#]#^#/#(#_#i g D :#<#    [#}#|#|#1#m >.R@2#b.L+L+L+L+L+L+L+L+L+L+b.L+3#4#B@5#j@a@6#7#X p Y K           ",
"          8#9#*+b@0#a#b#c#d#A+( 6 j S f 0+O  .a+e#f#0#S i 3 _#@+7+F.g#h#b.L+L+L+L+L+L+L+L+L+L+L+L+;@4#i#j#V I k#p Y K           ",
"          8#9#(+l#l@m#n#o#p#9 = q#r#s C P ..(.=.h.s#t#R B+h i 3 j { u#v#L+L+b.L+L+L+L+L+L+L+L+L+L+b.w#!.7#I I k#p Y K           ",
"          8#9#(+l#x#y#l#z#A#/ B#3 h f C#N L Z ].C+3.D#E#A h S r#3 j F#G#H#I#3#b.L+L+L+L+L+L+L+L+L+b.J#!.!.I I k#p Y K           ",
"          8#9#(+l#x#y#K#L#6@M#@.i s C B _.;.j.6.}@e.F.-+W.E#r N#M O#P#`@Q#R#S#T#.@L+L+L+L+L+L+L+L+b.J#!.!.I I k#p Y K           ",
"          8#9#(+l#x#y#U#q+R@V#W#6.^+q :.L /.7.C+3.T X#d@U+$@Y#Z#P#`# $.@.$+$@$#$  L+b.L+L+L+L+L+L+b.J#!.!.I I k#p Y K           ",
"          8#9#(+l#x#y#U#L#R@$$Z+%$&$7.*$(.^.v.4.=$-$S.;$>$w@,${@'$T#)$w#!$b.~${$    3#L+ @L+L+L+L+b.J#!.!.I I k#p Y U@          ",
"          8#9#(+l#x#y#U#L#R@$$Z+]$^$/$[+6.h.5.;+U.T.=+#@$@2@($_$O@:$<$2#Y+[$_@}$        v+b..@b.L+b.J#!.!.I X k#z |$            ",
"          8#9#(+l#x#y#U#L#R@$$Z+]$M+e+1$2$3$4$t.r.5$6$7$8$9${@h@0$j@a$C@b$c$c$L+        d$j.e$L+b.b.J#!.!.I .+f$M#g$            ",
"            h$*+l#x#y#U#L#R@$$Z+]$M+e+P+i$j$:+G }+|@Q.k$,$($x@5#l$A@B@m$Z+n$Y+{#    ~.h.n o$p$q$K@.@J#!.r$s$t$u$v$w$x$          ",
"              y$z$A$y#U#L#R@$$Z+]$M+e+P+`+y+4#B$O#t$e@C$f@g@D$i@j@a$E$P#F$G$H$ $  4.4.f.I$h.J$K$L$M$N$I O$P$Q$R$S$T$U@          ",
"            a.;+U$V$W$K#L#R@$$Z+]$M+e+P+`+y+E+X$Y$Z$l#3@3@x@5@z@(+`$ %l+.%4+  +%=$t.t.t.t.t.c@C+{.P$e.Q$c@u@@%#%X Y K           ",
"          (+$%G =$f.%%h$L#&%$$Z+]$M+e+P+`+y+E+X$*%Z@N+B$(+5@=%F@K -%G$5+4+l+;%-$-$-$-$-$-$-$-$-$U.U.>%,%'%D@W k#p Y K           ",
"          (+)%L#!%~%4.+%{%]%^%Z+]$M+e+P+`+y+E+X$*%Z@N+e$/%Z$(%5+-%K+G$5+4+l+C$T.T.T.T.T.T.T.T.T.T.X#_%:%V W X k#p Y K           ",
"          (+_+q+d+<%[%}%m.P$|%$$s@M+e+P+`+y+E+X$*%Z@N+e$W+1%2%w+J+K+G$5+4+5+3%@@@@@@@@@@@@@@@@5$3$4%K %.!.I I k#p Y K           ",
"          (+_+q+d+r+5%6%7%|%}$8%9%]$e+P+`+y+E+X$*%Z@N+e$W+0%I+w+J+K+G$5+4+5+v#U+U+U+U+U+U+U+g++@a%).b%V !.I I k#p Y K           ",
"          (+_+q+d+r+E+F+X.A.X+5+2+A.*%P+`+y+E+X$*%Z@N+e$W+0%I+w+J+K+G$5+4+5+N@c%c%c%c%c%k$9#}.d%d.%.b%V !.I I k#p Y K           ",
"          (+_+q+d+r+E+F+W+Y.e%p@L.y.*@f%g%y+E+X$*%Z@N+e$W+0%I+w+J+K+G$5+4+5+O@~@~@~@~@0$h%d% %1.d.%.b%V !.I I k#p Y U@          ",
"          (+_+q+d+r+E+F+W+Y.-%i%j%k%l%m%n%o%p%X$*%Z@N+e$W+0%I+w+J+K+G$5+4+2%-#%@%@_$*%o.z.|.q%d.d.%.b%V !.I I k#p Y K           ",
"          (+_+q+d+r+E+F+W+Y.-%r%s%t%u%v%w%x%y%z%A%Z@N+e$W+0%I+w+J+K+G$I+B%z@C%g@/@x.M.N.D%|.q%d.d.%.b%V !.I I k#K Y             ",
"          (+_+q+d+r+E+F+W+Y.-%E%F%G%H%I%J%K%L%M%j@N%e$e$W+0%I+w+J+I+K O%($_$P%Q%Z.H+ +N.D%|.q%d.d.%.b%V !.I R%y                 ",
"            O#q+d+r+E+F+W+Y.w+S%T%U%V%W%X%  Y%Z%5@h@_+F+X.0%I+X+H+`%N@5@(+P#Y.Z.Y.H+ +N.D%|.q%d.d.%.b%V .+I                     ",
"                d+r+E+F+W+Y.w+ &.&+&@&      #&4#$$j@l$P@/$1%2%$&P@l$A@Y$A.4+4+H+Y.H+ +N.D%|.q%d.d.%.b%V                         ",
"                  1$9@F+W+Y.w+%&&&          p%X$*%t+R@Q@j@*&m$;#Q@a@I =&=&3+4+H+Y.H+ +N.D%|.q%d.d.%.b%                          ",
"                      Y$W+Y.-&;&            p%X$*%Z@>&4#E$a$a$s@,&5+5+G$4+3+4+H+Y.H+ +N.D%|.q%d%1.                              ",
"                          `.                p%X$*%Z@N+'&'&E+)&2+-%K+G$5+4+3+4+H+Y.H+ +N.D%!&q%                                  ",
"                                            p%X$*%Z@N+e$W+~&I+w+J+K+G$5+4+3+4+H+Y.H+ +N.D%c.                                    ",
"                                            p%X$*%Z@N+e$W+0%I+w+J+K+G$5+4+3+4+H+H+H+ +z.                                        ",
"                                            p%X$*%Z@N+e$W+0%I+w+J+K+G$5+4+3+4+H+Y.M.                                            ",
"                                            p%X$*%Z@N+e$W+0%I+w+J+K+G$5+4+3+4+H+                                                ",
"                                            {&X$*%Z@N+e$W+0%I+w+J+K+G$5+4+3+4+                                                  ",
"                                              `$*%Z@N+e$W+0%I+w+J+K+G$2+]#                                                      ",
"                                                  ]&N+e$W+0%I+w+J+K+G$                                                          ",
"                                                      ^&W+0%I+w+J+                                                              ",
"                                                          0%I+-&                                                                "};
