/* XPM */
static char * favicon_64_xpm[] = {
"64 64 702 2",
"  	c None",
". 	c #F97720",
"+ 	c #FC7921",
"@ 	c #FD7A23",
"# 	c #FE7920",
"$ 	c #FC781E",
"% 	c #FD771D",
"& 	c #FC7820",
"* 	c #FB7C27",
"= 	c #FE7B24",
"- 	c #FD7B23",
"; 	c #FD7A21",
"> 	c #FD791F",
", 	c #FD771E",
"' 	c #FD761C",
") 	c #FC761B",
"! 	c #FD781F",
"~ 	c #FA7E2B",
"{ 	c #FD7E29",
"] 	c #FE7D27",
"^ 	c #FD7C25",
"/ 	c #FE7A22",
"( 	c #FC781F",
"_ 	c #FD761B",
": 	c #FC751A",
"< 	c #FC7519",
"[ 	c #FA802F",
"} 	c #FD802D",
"| 	c #FE802B",
"1 	c #FD7F2A",
"2 	c #FE7E28",
"3 	c #FE7C26",
"4 	c #FE7B25",
"5 	c #FE7B23",
"6 	c #FD7920",
"7 	c #FD781E",
"8 	c #FD771C",
"9 	c #FD7417",
"0 	c #FC7317",
"a 	c #FC8331",
"b 	c #FE832F",
"c 	c #FE822E",
"d 	c #FE812C",
"e 	c #FE7F2A",
"f 	c #FE7E29",
"g 	c #FE7E27",
"h 	c #FE7D26",
"i 	c #FE7C24",
"j 	c #FE7A23",
"k 	c #FE7921",
"l 	c #FC7518",
"m 	c #FC8332",
"n 	c #FDB889",
"o 	c #FEE0CB",
"p 	c #FB8536",
"q 	c #FE8534",
"r 	c #FD8432",
"s 	c #FE8330",
"t 	c #FE822F",
"u 	c #FE812D",
"v 	c #FE7C25",
"w 	c #FC771E",
"x 	c #FDA96F",
"y 	c #FFDEC8",
"z 	c #FEE7D6",
"A 	c #FFE7D6",
"B 	c #F9873A",
"C 	c #FE8838",
"D 	c #FE8736",
"E 	c #FE8635",
"F 	c #FE8433",
"G 	c #FE8331",
"H 	c #FE7F2B",
"I 	c #FD7C26",
"J 	c #FE9B58",
"K 	c #FED6BB",
"L 	c #FFE6D6",
"M 	c #FFE5D4",
"N 	c #FFE6D5",
"O 	c #F9893F",
"P 	c #FE8A3C",
"Q 	c #FE893A",
"R 	c #FE8739",
"S 	c #FE8737",
"T 	c #FE8636",
"U 	c #FE8432",
"V 	c #FE802C",
"W 	c #FD9047",
"X 	c #FECCAB",
"Y 	c #FEE4D3",
"Z 	c #FEE6D5",
"` 	c #FC8C41",
" .	c #FE8B3F",
"..	c #FD8A3D",
"+.	c #FE893B",
"@.	c #FE8939",
"#.	c #FE8839",
"$.	c #FE8637",
"%.	c #FE8535",
"&.	c #FE802D",
"*.	c #FD7F2B",
"=.	c #FD893B",
"-.	c #FEBE93",
";.	c #FFE2CD",
">.	c #FC8E46",
",.	c #FE8E43",
"'.	c #FE8D41",
").	c #FE8C40",
"!.	c #FE8B3E",
"~.	c #FE8738",
"{.	c #FD8635",
"].	c #FDAF7A",
"^.	c #FEDCC5",
"/.	c #FFE5D5",
"(.	c #FA9049",
"_.	c #FD9147",
":.	c #FD8F46",
"<.	c #FE8F44",
"[.	c #FE8E42",
"}.	c #FE8C3F",
"|.	c #FE8A3D",
"1.	c #FD8534",
"2.	c #FDA163",
"3.	c #FED4B9",
"4.	c #FFE6D7",
"5.	c #FFE6D4",
"6.	c #F9914E",
"7.	c #FD934C",
"8.	c #FE924A",
"9.	c #FE9148",
"0.	c #FE9046",
"a.	c #FE9045",
"b.	c #FE8F43",
"c.	c #FE8B3D",
"d.	c #FE8A3B",
"e.	c #FD8637",
"f.	c #FD9651",
"g.	c #FDCBA9",
"h.	c #FD9650",
"i.	c #FE954E",
"j.	c #FE944D",
"k.	c #FE934B",
"l.	c #FE9149",
"m.	c #FE9047",
"n.	c #FE8F45",
"o.	c #FDC197",
"p.	c #FFE3CF",
"q.	c #FC9854",
"r.	c #FD9752",
"s.	c #FE9650",
"t.	c #FD954F",
"u.	c #FE934C",
"v.	c #FE9146",
"w.	c #FE8E44",
"x.	c #FE8D42",
"y.	c #FD8A3C",
"z.	c #FD8D41",
"A.	c #FDB483",
"B.	c #FEDDC8",
"C.	c #FB9A58",
"D.	c #FD9A57",
"E.	c #FE9955",
"F.	c #FE9853",
"G.	c #FE9752",
"H.	c #FE944C",
"I.	c #FE9249",
"J.	c #FE8C41",
"K.	c #FDA971",
"L.	c #FED6BA",
"M.	c #FEE9DA",
"N.	c #FDAD77",
"O.	c #FC9C5A",
"P.	c #FE9C59",
"Q.	c #FD9B58",
"R.	c #FE9A56",
"S.	c #FE9854",
"T.	c #FE9753",
"U.	c #FE9651",
"V.	c #FE964F",
"W.	c #FE9147",
"X.	c #FD8F45",
"Y.	c #FD8F44",
"Z.	c #FDA060",
"`.	c #FDCCAA",
" +	c #FEE5D4",
".+	c #FEEADD",
"++	c #FDC098",
"@+	c #FC7418",
"#+	c #FD6C0A",
"$+	c #FD7315",
"%+	c #FEAD79",
"&+	c #FBA66D",
"*+	c #FD9E5E",
"=+	c #FE9B59",
"-+	c #FE9852",
";+	c #FE954F",
">+	c #FD934A",
",+	c #FD9956",
"'+	c #FDC097",
")+	c #FFE4D2",
"!+	c #FC7C25",
"~+	c #FC6A07",
"{+	c #FD6F0F",
"]+	c #FD7113",
"^+	c #FD7D27",
"/+	c #FEAF7C",
"(+	c #FFB381",
"_+	c #FEB382",
":+	c #FBA469",
"<+	c #FE9956",
"[+	c #FD9854",
"}+	c #FE9751",
"|+	c #FD944E",
"1+	c #FCB788",
"2+	c #FEDFCB",
"3+	c #FEE5D3",
"4+	c #FC934B",
"5+	c #FE7011",
"6+	c #FE761C",
"7+	c #FE7D25",
"8+	c #FD802B",
"9+	c #FE8634",
"0+	c #FD8C41",
"a+	c #FFB07C",
"b+	c #FEB381",
"c+	c #FFB788",
"d+	c #FEBA8C",
"e+	c #FDB485",
"f+	c #FCA165",
"g+	c #FDAD78",
"h+	c #FED9C0",
"i+	c #FFEADC",
"j+	c #FDA66C",
"k+	c #FC781D",
"l+	c #FD7C24",
"m+	c #FE8533",
"n+	c #FD9753",
"o+	c #FFB787",
"p+	c #FEBB8E",
"q+	c #FFBF94",
"r+	c #FEC096",
"s+	c #FDB484",
"t+	c #FC9E5E",
"u+	c #FDA76D",
"v+	c #FDCFB0",
"w+	c #FEE7D7",
"x+	c #FED8BF",
"y+	c #FBAA74",
"z+	c #FC7B23",
"A+	c #FD781D",
"B+	c #FD944C",
"C+	c #FFBB8E",
"D+	c #FFBF93",
"E+	c #FEC299",
"F+	c #FFC6A0",
"G+	c #FEC49E",
"H+	c #FDC6A0",
"I+	c #FEE3D0",
"J+	c #FFE7D7",
"K+	c #FEDEC8",
"L+	c #FEC6A0",
"M+	c #FFC198",
"N+	c #FFCCA9",
"O+	c #FDC099",
"P+	c #FD9A59",
"Q+	c #FD7D28",
"R+	c #FE9C5B",
"S+	c #FE9F61",
"T+	c #FFC299",
"U+	c #FFC69F",
"V+	c #FEC9A5",
"W+	c #FFDCC5",
"X+	c #FEE2CE",
"Y+	c #FEC9A7",
"Z+	c #FFB98A",
"`+	c #FFC59E",
" @	c #FFCBA9",
".@	c #FECCAA",
"+@	c #FFCCAB",
"@@	c #FEBC90",
"#@	c #FD8331",
"$@	c #FE8E41",
"%@	c #FD9D5D",
"&@	c #FEA060",
"*@	c #FFA264",
"=@	c #FEA66B",
"-@	c #FFC9A5",
";@	c #FEE6D4",
">@	c #FED2B6",
",@	c #FFB685",
"'@	c #FFBD91",
")@	c #FFC097",
"!@	c #FFC8A3",
"~@	c #FFCCAA",
"{@	c #FFCBA8",
"]@	c #FEB585",
"^@	c #FD8839",
"/@	c #FE8D40",
"(@	c #FE9A57",
"_@	c #FE9F5E",
":@	c #FEA163",
"<@	c #FFA467",
"[@	c #FEA56A",
"}@	c #FEA86F",
"|@	c #FDE5D5",
"1@	c #FEB88A",
"2@	c #FFB88A",
"3@	c #FFBE94",
"4@	c #FFC29B",
"5@	c #FFCAA7",
"6@	c #FEC8A5",
"7@	c #FEAF79",
"8@	c #FD9E5D",
"9@	c #FFA061",
"0@	c #FFA365",
"a@	c #FFA568",
"b@	c #FFA76D",
"c@	c #FFA971",
"d@	c #FFAC74",
"e@	c #FFB07B",
"f@	c #FEE5D5",
"g@	c #FDE5D4",
"h@	c #FFBA8D",
"i@	c #FEBA8D",
"j@	c #FFBD92",
"k@	c #FFC59F",
"l@	c #FEC59E",
"m@	c #FDA970",
"n@	c #FE9954",
"o@	c #FE9D5C",
"p@	c #FE9F60",
"q@	c #FFA263",
"r@	c #FFA66B",
"s@	c #FFA86F",
"t@	c #FFAB72",
"u@	c #FFAD76",
"v@	c #FEAF7A",
"w@	c #FFB17E",
"x@	c #FDBA90",
"y@	c #FFBF95",
"z@	c #FFC095",
"A@	c #FFC29A",
"B@	c #FFC8A2",
"C@	c #FEC095",
"D@	c #FDA568",
"E@	c #FE9C5A",
"F@	c #FFA162",
"G@	c #FFA366",
"H@	c #FFA56A",
"I@	c #FFA86D",
"J@	c #FFAA71",
"K@	c #FFAC75",
"L@	c #FFAE79",
"M@	c #FFB17C",
"N@	c #FFB27F",
"O@	c #FD9F61",
"P@	c #FEBB90",
"Q@	c #FDBF96",
"R@	c #FDAC77",
"S@	c #FFC9A6",
"T@	c #FEBA8E",
"U@	c #FDA366",
"V@	c #FD9E5C",
"W@	c #FEA264",
"X@	c #FFA468",
"Y@	c #FFA76B",
"Z@	c #FFA96F",
"`@	c #FFAB74",
" #	c #FFAD77",
".#	c #FFD8BE",
"+#	c #F67118",
"@#	c #FD6601",
"##	c #FD6500",
"$#	c #FC6F12",
"%#	c #FEC29A",
"&#	c #FDD2B4",
"*#	c #F7731C",
"=#	c #FA7117",
"-#	c #F97014",
";#	c #FB8333",
">#	c #FEC199",
",#	c #FEB686",
"'#	c #FFA86E",
")#	c #FFAF7A",
"!#	c #FFD1B3",
"~#	c #FFE5D3",
"{#	c #FEAB74",
"]#	c #FB8F47",
"^#	c #FC6C0B",
"/#	c #FD6804",
"(#	c #FC6B08",
"_#	c #FC812E",
":#	c #FEC6A2",
"<#	c #FFC8A4",
"[#	c #FD7D26",
"}#	c #F7741D",
"|#	c #FA7319",
"1#	c #FA7218",
"2#	c #FA7317",
"3#	c #F97117",
"4#	c #FA7115",
"5#	c #FB8E45",
"6#	c #FEC9A6",
"7#	c #FEC8A3",
"8#	c #FFB482",
"9#	c #FFAA70",
"0#	c #FFAB73",
"a#	c #FFE2CF",
"b#	c #FFAE7A",
"c#	c #FB883B",
"d#	c #FC6E0E",
"e#	c #FD6E0C",
"f#	c #FC7215",
"g#	c #FD9653",
"h#	c #FDDDCA",
"i#	c #FD8D42",
"j#	c #FB7B26",
"k#	c #FA751C",
"l#	c #FC7A22",
"m#	c #FC7A23",
"n#	c #FB7317",
"o#	c #FB751D",
"p#	c #FC9F61",
"q#	c #FFCEAF",
"r#	c #FFCBAA",
"s#	c #FFB483",
"t#	c #FEBF96",
"u#	c #FFDDC6",
"v#	c #FEB07C",
"w#	c #FEB280",
"x#	c #FDA569",
"y#	c #FB8334",
"z#	c #FC7214",
"A#	c #FD7316",
"B#	c #FD7418",
"C#	c #FD9046",
"D#	c #FC771D",
"E#	c #FC7F2C",
"F#	c #FDAE7A",
"G#	c #FFCDAB",
"H#	c #FECEAE",
"I#	c #FFB07D",
"J#	c #FFB382",
"K#	c #FB9F62",
"L#	c #FE812E",
"M#	c #FE8431",
"N#	c #FD7F29",
"O#	c #FDB787",
"P#	c #FEC8A4",
"Q#	c #FECBA9",
"R#	c #FECEAF",
"S#	c #FEB584",
"T#	c #FFB686",
"U#	c #FEB484",
"V#	c #FD9A58",
"W#	c #FE9F5F",
"X#	c #FD812D",
"Y#	c #FD9045",
"Z#	c #FEB27F",
"`#	c #FEBD92",
" $	c #FEB98A",
".$	c #FEB380",
"+$	c #FDBD94",
"@$	c #FECAA8",
"#$	c #FECBAA",
"$$	c #FFB584",
"%$	c #FFB687",
"&$	c #FD9853",
"*$	c #FE8332",
"=$	c #FD9D5C",
"-$	c #FEA05F",
";$	c #FEA366",
">$	c #FDB37F",
",$	c #FDCAA7",
"'$	c #FEC59D",
")$	c #FDBF94",
"!$	c #FDBB8D",
"~$	c #FEB17D",
"{$	c #FDC49E",
"]$	c #FFAA73",
"^$	c #FFB889",
"/$	c #FEB98B",
"($	c #FFBA8C",
"_$	c #FD9F5F",
":$	c #FFD3B4",
"<$	c #FFD1B2",
"[$	c #FECDAA",
"}$	c #FEBD91",
"|$	c #FDB888",
"1$	c #FFB98B",
"2$	c #FFBC90",
"3$	c #FFBC8F",
"4$	c #FEAE78",
"5$	c #FD954E",
"6$	c #FEA061",
"7$	c #FFA569",
"8$	c #FFA76C",
"9$	c #FFA970",
"0$	c #FFAF79",
"a$	c #FED3B4",
"b$	c #FFCFAF",
"c$	c #FEC69F",
"d$	c #FEBF93",
"e$	c #FDBD92",
"f$	c #FECDAE",
"g$	c #FDE7D9",
"h$	c #FFBC92",
"i$	c #FEBE94",
"j$	c #FEBC91",
"k$	c #FEAA72",
"l$	c #FE9A58",
"m$	c #FD9D5B",
"n$	c #FFA367",
"o$	c #FFB17D",
"p$	c #FFCEAD",
"q$	c #FDC39C",
"r$	c #FC9856",
"s$	c #FEB17E",
"t$	c #FEC6A1",
"u$	c #FFBC91",
"v$	c #FFBE93",
"w$	c #FFC098",
"x$	c #FEA76C",
"y$	c #FD9955",
"z$	c #FE9E5D",
"A$	c #FEA162",
"B$	c #FFA265",
"C$	c #FFAE78",
"D$	c #FFB481",
"E$	c #FFC19A",
"F$	c #FBAE7A",
"G$	c #FEA062",
"H$	c #FE9B57",
"I$	c #FD9C5A",
"J$	c #FED1B3",
"K$	c #FFC6A2",
"L$	c #FCA870",
"M$	c #FEB17F",
"N$	c #FFC197",
"O$	c #FEC39B",
"P$	c #FFA163",
"Q$	c #FFAF7B",
"R$	c #FFD8BF",
"S$	c #FFD7BC",
"T$	c #FBB98D",
"U$	c #FFB37F",
"V$	c #FFB280",
"W$	c #FEA364",
"X$	c #FDA162",
"Y$	c #FEC7A3",
"Z$	c #FEE4D4",
"`$	c #FEDBC4",
" %	c #FFC094",
".%	c #F7995B",
"+%	c #FDAD79",
"@%	c #FFB484",
"#%	c #FFC49D",
"$%	c #FEBB8F",
"%%	c #FFAD75",
"&%	c #FFB585",
"*%	c #FFD2B4",
"=%	c #FCC8A6",
"-%	c #FFB380",
";%	c #FFB27E",
">%	c #FEAD76",
",%	c #FEA66C",
"'%	c #FDA86E",
")%	c #FEB483",
"!%	c #FEB787",
"~%	c #FFD6BB",
"{%	c #FEAE7A",
"]%	c #FCA770",
"^%	c #FC9957",
"/%	c #FD944D",
"(%	c #FEB383",
"_%	c #FEB889",
":%	c #FFC7A1",
"<%	c #FFB98C",
"[%	c #FFE1CD",
"}%	c #FFC49C",
"|%	c #FFB27D",
"1%	c #FEB07B",
"2%	c #FFB786",
"3%	c #FFAF7C",
"4%	c #FCA66D",
"5%	c #FD924A",
"6%	c #FDA165",
"7%	c #FEB78A",
"8%	c #FFDCC4",
"9%	c #FEC8A2",
"0%	c #FFE0CA",
"a%	c #FEB888",
"b%	c #FDB688",
"c%	c #FCA266",
"d%	c #FEAA74",
"e%	c #FEB88C",
"f%	c #FEE2D0",
"g%	c #FEBF95",
"h%	c #FEDAC2",
"i%	c #FDB78A",
"j%	c #FC9D5E",
"k%	c #FDAA71",
"l%	c #FED2B5",
"m%	c #FEC19A",
"n%	c #FEB98C",
"o%	c #FDD4B8",
"p%	c #FEC7A2",
"q%	c #FDD0B1",
"r%	c #FFE3D1",
"s%	c #FFDCC6",
"t%	c #FECEAD",
"u%	c #FEE1CE",
"v%	c #FFE0CC",
"w%	c #FEC29B",
"x%	c #FDC6A2",
"y%	c #FEE0CA",
"z%	c #FDE2D0",
"A%	c #FBDFCD",
"B%	c #FADDCA",
"C%	c #F9DCC8",
"D%	c #F8DBC7",
"E%	c #F9D9C3",
"F%	c #FACBAD",
"G%	c #FFE8D8",
"H%	c #FEC097",
"I%	c #FEDAC1",
"J%	c #FCE2CF",
"K%	c #F8DDCB",
"L%	c #F7DAC7",
"M%	c #F5D8C5",
"N%	c #F4D6C2",
"O%	c #F2D4C0",
"P%	c #F0D3BE",
"Q%	c #F1CFB8",
"R%	c #FAC4A1",
"S%	c #FFC6A1",
"T%	c #FEDDC6",
"U%	c #FED3B6",
"V%	c #FFB887",
"W%	c #FBE0CE",
"X%	c #F5DAC8",
"Y%	c #F4D8C5",
"Z%	c #F2D6C3",
"`%	c #F1D4C0",
" &	c #F0D2BE",
".&	c #EECFBA",
"+&	c #F0BD9C",
"@&	c #FC9A5A",
"#&	c #FDA56A",
"$&	c #FEC39C",
"%&	c #FEE3D1",
"&&	c #FEB687",
"*&	c #FADFCE",
"=&	c #F3D8C6",
"-&	c #F1D6C4",
";&	c #F0D4C1",
">&	c #EED2BE",
",&	c #ECCFBC",
"'&	c #FBA165",
")&	c #FDB07D",
"!&	c #FECAA7",
"~&	c #FEB482",
"{&	c #FDC49F",
"]&	c #FEDFCC",
"^&	c #F9DECC",
"/&	c #F0D6C4",
"(&	c #EFD4C2",
"_&	c #EED2BF",
":&	c #FEB07D",
"<&	c #FCA56B",
"[&	c #FDBC91",
"}&	c #FEE3D2",
"|&	c #FDDBC4",
"1&	c #FDE4D4",
"2&	c #FDBE95",
"3&	c #FFC199",
"4&	c #FEC59F",
"5&	c #F7DDCB",
"6&	c #EFD4C3",
"7&	c #DFC7B6",
"8&	c #FDB383",
"9&	c #FCA872",
"0&	c #FEA86D",
"a&	c #FED4B8",
"b&	c #FEC5A0",
"c&	c #FFC8A5",
"d&	c #FEDCC4",
"e&	c #F3D9C9",
"f&	c #FCB688",
"g&	c #FDB17F",
"h&	c #FDCCAB",
"i&	c #FEE2CF",
"j&	c #FDDAC5",
"k&	c #FFC39C",
"l&	c #FCBC90",
"m&	c #FDC39D",
"n&	c #FEDFCA",
"o&	c #FFC39B",
"p&	c #FEC7A1",
"q&	c #FDE4D5",
"r&	c #FEB07E",
"s&	c #FDCAA9",
"                                                                  . +                                                           ",
"                                                                @ # $ % &                                                       ",
"                                                            * = - ; > , ' ) !                                                   ",
"                                                        ~ { ] ^ = / # ( % _ : <                                                 ",
"                                                    [ } | 1 2 3 4 5 ; 6 7 8 _ < 9 0                                             ",
"                                                  a b c d e f g h i j k ( 7 ' l m n o                                           ",
"                                              p q r s t u | e 2 ] v 5 ; # w { x y z A                                           ",
"                                          B C D E F G s c d H f 2 h i / I J K L M N A                                           ",
"                                      O P Q R S T q U G t u V e f ] 3 W X Y N M N Z A                                           ",
"                                    `  ...+.@.#.$.%.F U s c &.*.2 =.-.;.Z N N N N Z A                                           ",
"                                >.,.'.).!.P +.#.~.T q F G t V {.].^.A /.N N N N N Z A                                           ",
"                            (._.:.<.[.'.}.|.P Q C S E q G 1.2.3.4.Z 5.N N N N N N N A                                           ",
"                        6.7.8.9.0.a.b.[.).!.c.d.@.~.T e.f.g.N Z M N N N N N N N N N A                                           ",
"                      h.i.j.k.l.m.0.n.,.'. .!.P Q #.:.o.p.N Z N N N N N N N N N N Z A                                           ",
"                  q.r.s.t.i.u.8.9.v.a.w.x.).}.y.z.A.B.N Z M N N N N N N N N N N N Z                                             ",
"              C.D.E.F.G.s.i.H.k.I.9.0.n.,.'.J.K.L.L Z M N N N N N N N N N N N M.N.                                              ",
"            O.P.Q.R.S.T.U.V.i.u.8.l.W.X.Y.Z.`. +N M N N N N N N N N N N N .+++@+#+$+                                            ",
"          %+&+*+=+D.E.F.-+s.;+j.k.>+9.,+'+)+N M N N N N N N N N N N M z L.!+~+{+]+9 8 ^+                                        ",
"          /+(+_+:+=+<+[+F.}+s.|+7.U.1+2+N M N N N N N N N N N N  +N 3+4+5+6+7+8+s 9+~.P 0+W.                                    ",
"          a+b+c+d+e+f+E.F.G.f.V.g+h+ +N M N N N N N N N N N N N i+j+k+7 l+2 V t m+S +.}.,.m.H.n+                                ",
"          a+(+o+p+q+r+s+t+G.u+v+3+N 5.N N N N N N N N N N  +w+x+y+z+A+j h e c U D #.c.'.n.l.B+U.<+                              ",
"          a+(+o+C+D+E+F+G+H+I+N M N N N N N N N N N N  +J+K+L+M+N+O+P+e Q+u s q ~.P ).b.W.k.;+F.R.R+S+                          ",
"          a+(+o+C+D+T+U+V+W+Z N N N N N N N N N N  +N X+Y+Z+-.`+ @.@+@@@7.#@U T Q !.$@n.8.j.}+E.=+%@&@*@=@                      ",
"          a+(+o+C+D+T+U+-@W+N N N N N N N N N ;@N Z >@,@d+'@)@!@N+~@N+.@{@]@0.^@P /@w.9.k.V.S.(@R+_@:@<@[@}@                    ",
"          a+(+o+C+D+T+U+-@W+N N N N N N N N Z 5.|@  1@2@C+3@4@5@~@~@~@ @.@~@6@7@0.x.0.8.i.G.E.=+8@9@0@a@b@c@d@7@                ",
"          e@(+o+C+D+T+U+-@W+N N N N N N f@N g@      h@i@j@)@k@ @~@~@~@~@~@~@~@~@l@m@k.H.s.n@J o@p@q@<@r@s@t@u@v@w@_+            ",
"            _+c+p+D+T+U+-@W+N N N N N N  +          x@y@z@A@B@~@N+~@~@~@~@~@~@ @.@~@C@D@F.<+E@*+F@G@H@I@J@K@L@M@N@(+k@          ",
"              O@P@D+T+U+-@W+N N  +N Y Q@                R@F+S@~@~@~@~@~@~@~@~@~@~@ @.@N+T@U@V@&@W@X@Y@Z@`@ #e@N@j@.#N           ",
"          +#@###$#_+%#U+V+W+N N Z &#*.| G           *#=#-#;#>#~@~@ @~@~@~@~@~@~@~@~@~@ @~@5@,#X@G@H@'#t@K@)#o+!#~#N N           ",
"          {#]#^#/#(#_#:#<#W+N B.{.[#H t r D +.  }#|#1#2#3#3#4#5#6#~@ @~@~@~@~@~@~@~@~@~@ @.@ @7#8#'#9#0#a+S@a#/.N M N           ",
"          b#a+K.c#d#e#f#g#h#[+@ v f u s E R P '.i#j#k#l#^ m#w n#o#p#q#.@~@~@~@~@~@~@~@~@~@~@r#~@ @`+s#t#u#5.N 5.N N N           ",
"          b#v#w@w#x#y#z#A#B#! l+] | t m+$.Q  .[.C#H.m.F t c u | ^+D#E#F#G# @~@~@~@~@~@~@~@~@~@~@ @~@H#~#N M N N N N N           ",
"          b#a+I#N@J#_+K#_#7 / 3 e L#M#E #.c.'.<.9.u.s.(@n.s u V V N#L#W.O#P#+@Q#~@~@~@~@~@~@~@~@~@ @R#M N N N N N N N           ",
"          b#a+I#N@J#S#T#U#V#c 2 V s m+~.+.}.,.m.k.i.-+R.E@W#c.X#L#Y#Z#`# $.$+$@$~@#$~@~@~@~@~@~@~@ @R#M N N N N N N N           ",
"          b#a+I#N@J#$$T#%$1@s#&$#@*$T Q c.x.n.I.j.s.E.J =$-$W@;$>$G#,$'$)$!$,#~${$N+~@Q#~@~@~@~@~@ @R#M N N N N N N N           ",
"          ]$a+I#N@J#$$T#%$^$/$($w#t.#.P ).w.W.k.;+F.(@E@_$F@G@H@Z@U#:$<$[$%#}$|$n   #$~@.@~@~@~@~@ @R#M N N N N N Z N           ",
"          b#a+I#N@J#$$T#%$^$1$C+2$3$4$5$'.a.8.i.}+E.=+8@6$W@7$8$9$0#0$z@a$b$c$d$e$      f$+@~@~@~@ @R#M N N N  +L g$            ",
"          b#v#I#N@J#$$T#%$^$1$C+2$h$i$j$k$h.k.V.F.l$m$W#q@n$r@'#t@u@)#o$$$F+p$L+q$      r$s$Q#~@Q# @R#M N  +L I+t$s$            ",
"            v#w@Z#J#$$T#%$^$1$C+2$u$v$y@w$`#x$y$E.P.z$A$B$7$8$J@K@C$a+N@D$E$!#+@Y+  F$G$H$I$8@Q@Q#~@R#M N Y J$e@N@$$K$          ",
"              L$M$J#S#T#%$^$1$C+2$u$v$y@N$A@O$j$=@8@&@P$<@r@Z@0#u@Q$N@3$R$N S$X T$U$N@V$K@W$X$U@m@Y$R#Z$`$b+Z#(+ %W+N           ",
"          .%s.;+h.+%@%T#%$^$1$C+2$u$v$y@N$A@4@#%G+$%b@;$H@I@J@%%L@&%*%)+N N =%Z#N@w#-%-%-%;%>%,%'%0#)%!%Z#U$h@~%~#N N           ",
"          {%]%^%i./%=+(%c+_%1$C+2$u$v$y@N$A@4@#%k@:%L+<%J@9$0#e@-@[%N N M N }%N@-%-%-%-%-%-%.$|%0$1%N@Z#2%b$a#N /.5.N           ",
"          3%J#_+4%n+u.5%6%7%1$C+2$u$v$y@N$A@4@#%k@:%!@-@F+^$i$8%N N 5.N M N }%N@-%-%-%-%-%-%U$V$-%N@8#9%0%N N N N N N           ",
"          a+(+a%C+b%c%t.k.l.d%e%3$j$v$y@N$A@4@#%k@:%!@<#5@X f%N M N N N M N }%N@-%-%-%-%-%-%Z#N@.$g%h%L N 5.N N N N N           ",
"          a+(+o+C+d$E+i%j%t.k%l%m%j$v$y@N$A@4@#%k@:%!@<#5@+@f%N N N N N M N }%N@-%-%-%-%-%N@-%n%o%M Z N N N N N N N N           ",
"          a+(+o+C+D+T+c$p%q%)+r%f%s%t#y@N$A@4@#%k@:%!@<#5@+@f%N N N N N M N }%N@-%-%-%-%N@]@t%I+Z Z N N N N N N N N N           ",
"          a+(+o+C+D+T+U+V+8% +r%f%u%v%3.t#A@w%#%k@:%!@<#5@+@f%N N N N N M N }%N@-%U$Z#D$x%y%/.N M N N N N N N N N N N           ",
"          a+(+o+C+D+T+U+-@8%M z%A%B%C%D%E%F%A@#%k@:%!@<#5@+@f%N N N N N N G%>#N@N@U$H%I% +Z 5.N N N N N N N N N N f@;@          ",
"          a+(+o+C+D+T+U+-@8%M J%K%L%M%N%O%P%Q%R%S%t$!@<#5@+@f%N N N  +w+T%i$o$N@p+U%~#N M N N N N N N N N N N N 5. +            ",
"          v#b+V%C+D+T+U+-@8%M W%X%Y%Z%`% &.&+&@&#&$&!@<#5@+@f%N  +N %&Y$M@N@&&`.%&Z /.N N N N N N N N N N f@ +f@                ",
"            J#%$C+D+T+U+-@8%M *&=&-&;&>&,&  '&D.I$z$)&6@!&+@f%N M v+w@Z#~&{&]&N M N N N N N N N N N N /.N 5.                    ",
"                T@v$T+U+-@8%M ^&/&(&_&      :&:&<&6$U@'%[&t%}&h+,#N@N@i$|& +N M N N N N N N N N N N /.N 1&                      ",
"                  2&3&4&-@8%M 5&6&7&        :&$$_%8&9&0&9#w#}$o$;%i@a&Y N Z N N N N N N N N N N f@N g@                          ",
"                      b&c&d&3+e&            :&$$ $2$-.f&g&Z#N@&&h&i&N M N N N N N N N N N N f@5. +                              ",
"                          j&                :&$$Z+3$C@k&{&l&m&n&L Z N N N N N N N N N N f@N f@|@                                ",
"                                            :&$$Z+3$z@o&p&Q#I+/.5.N N N N N N N N N N N ;@q&                                    ",
"                                            :&$$Z+3$z@o&:% @f%N N N N N N N N N N f@N |@                                        ",
"                                            :&$$Z+3$z@o&:% @f%N N N N N N N N N N  +                                            ",
"                                            :&$$Z+3$z@o&:% @f%N N N N N N N N f@                                                ",
"                                            r&@% $3$z@o&:% @f%N N N N Z 5.;@f@                                                  ",
"                                              e+7%2$z@o&:% @f%N N N N  +|@                                                      ",
"                                                  P@y@O$:% @f%N N /. +                                                          ",
"                                                      O$F+ @f%N N                                                               ",
"                                                          s&f%g@                                                                "};
